<?xml version="1.0" encoding="utf-8"?>
<!-- Generator: Adobe Illustrator 18.1.1, SVG Export Plug-In . SVG Version: 6.00 Build 0)  -->
<svg version="1.1" id="Ebene_1" xmlns="http://www.w3.org/2000/svg" xmlns:xlink="http://www.w3.org/1999/xlink" x="0px" y="0px"
	 viewBox="0 0 79.9 79.9" enable-background="new 0 0 79.9 79.9" xml:space="preserve">
<rect x="0" y="0" fill="#22221F" width="79.9" height="79.9"/>
<path fill="#FFFFFF" d="M62.4,61.4c0,0.6-0.1,0.7-0.6,0.7h-12c-0.6,0-0.7-0.1-0.7-0.7V47c0-0.2-0.3-0.4-0.5-0.4
	c-0.1,0-0.3,0.1-0.5,0.2l-7.3,7.7c-0.2,0.2-0.5,0.3-0.9,0.3c-0.3,0-0.7-0.1-0.9-0.3l-7.3-7.7c-0.1-0.1-0.3-0.2-0.5-0.2
	c-0.3,0-0.5,0.2-0.5,0.4v14.4c0,0.6-0.1,0.7-0.7,0.7h-12c-0.6,0-0.6-0.1-0.6-0.7V15.4c0-0.3,0.2-0.5,0.5-0.5c0.1,0,0.3,0,0.7,0.3
	l20.8,21.1c0.2,0.2,0.3,0.3,0.4,0.3c0.1,0,0.2-0.1,0.4-0.3l20.8-21.1c0.4-0.3,0.6-0.3,0.7-0.3c0.3,0,0.5,0.1,0.5,0.5V61.4z"/>
</svg>
